<svg xmlns="http://www.w3.org/2000/svg" width="870" height="197" fill="none" viewBox="0 0 870 197" role="img" aria-label="Config" class="my-dxl8w0"><path fill="currentColor" d="M767.68 19a.45.45 0 0 1 .229.071q.076.047.143.107c.089.078.184.18.268.29a2.196 2.196 0 0 0 .647.494c1.047.5 1.626.868 2.048 1.347.2.227.264.286.325.315.059.029.139.042.432.055.408.018.847.125 1.22.298l.141.065c.154.071.331.064.478-.02l.12-.067h.001c.286-.163.859-.43 1.282-.597l.241-.093c.226-.083.414-.14.627-.175.278-.046.587-.052 1.065-.052.49 0 .796.003 1.038.047.261.047.443.14.685.275.259.144.723.337 1.016.42.329.095.566.107.742.066a.73.73 0 0 0 .433-.304c.246-.333.638-.557.999-.648.182-.045.376-.063.554-.03.166.03.34.11.458.27a1 1 0 0 0 .064.076q.042.042.113.098c.094.074.212.153.326.219h.001c.266.154.635.407.828.572.072.062.155.119.226.158q.053.03.082.04l.018.003a.77.77 0 0 1 .612.314c.145.194.22.458.26.755.046.335.119.535.245.697.132.169.345.327.733.53.816.43 1.245.797 1.439 1.39l.022.053c.03.064.083.158.159.272.097.145.216.3.331.426.316.347.62.841.824 1.332.17.407.373.836.449.957a26 26 0 0 0 1.508 2.072c.274.328.499.659.658.964.155.297.263.601.263.865 0 .27-.086.66-.192 1.008-.104.342-.249.71-.398.913-.093.127-.386.657-.65 1.19-.263.531-.634 1.19-.831 1.464-.153.213-.204.301-.226.374a.6.6 0 0 0-.012.21l.025.256c.022.289-.005.54-.181.74v.002c-.02.022-.073.098-.146.221a6 6 0 0 0-.212.387v.001c-.173.346-.343.624-.633.786-.281.156-.627.175-1.061.172-.441-.004-.666.016-.835.079a1.1 1.1 0 0 0-.375.252l-.164.162c-.159.165-.299.301-.449.377a.75.75 0 0 1-.504.054h-.001a.3.3 0 0 0-.158.003.8.8 0 0 0-.22.126 1.3 1.3 0 0 1-.431.227c-.119.033-.237.04-.356.032l-.19-.02c-.16-.009-.32.03-.598.169a9 9 0 0 1-.698.307l-.196.07c-.063.02-.184.083-.334.179a3.5 3.5 0 0 0-.416.313 3 3 0 0 1-.46.348c-.113.064-.308.153-.506.072-.178-.074-.253-.089-.303-.089a.4.4 0 0 0-.152.042l-.094.045a2.4 2.4 0 0 0-.571.42c-.082.081-.146.155-.186.214l-.012.02a.2.2 0 0 0-.025.09 1.5 1.5 0 0 1-.17.517 3.6 3.6 0 0 1-.378.58 3.6 3.6 0 0 1-.477.504c-.158.135-.346.262-.535.31-.153.038-.334.022-.511-.013a5 5 0 0 1-.657-.19c-.476-.17-.747-.226-1.163-.23l-.188.002c-.442.01-.812-.023-1.107-.121l-.122-.046c-.185-.079-.54-.135-1.026-.135-.442 0-.774-.023-1.073-.142a2 2 0 0 1-.617-.419l-.206-.203a2 2 0 0 0-.282-.24 1 1 0 0 0-.104-.06.1.1 0 0 0-.023-.005c-.487-.011-.986-.25-1.167-.686-.085-.204-.148-.283-.198-.32-.041-.031-.11-.06-.282-.06a1.92 1.92 0 0 0-1.386.593l-.076.081a10 10 0 0 1-1.133 1.014l-.672.508a.3.3 0 0 1-.202.06l-1.387-.082c-.25-.015-.47.184-.57.414a3 3 0 0 1-.298.52c-.16.234-.225.346-.253.425-.019.056-.023.102 0 .224.029.15.048.31 0 .47a.94.94 0 0 1-.261.39 1.3 1.3 0 0 1-.312.226.84.84 0 0 1-.369.106h-.002l-.009.001-.031.006a.8.8 0 0 0-.185.066l-.08.045c-1.154.772-1.683 1.135-2.115 1.462l-.421.328c-.408.33-.738.556-1.073.642-.359.092-.679.014-1.032-.138-.305-.131-.433-.168-.511-.169-.031 0-.064.005-.137.053l-.089.064c-.177.139-.377.26-.626.246a1 1 0 0 1-.49-.183l-.153-.106c-.131-.097-.191-.128-.307-.15-.147-.027-.373-.033-.838-.033-.466 0-.759 0-.984-.049-.252-.054-.415-.166-.625-.314a.47.47 0 0 0-.536-.007l-.088.059c-.211.14-.32.229-.389.309a.7.7 0 0 0-.142.282 1.87 1.87 0 0 1-.83 1.08c-.417.266-.986.455-1.728.615-.105.023-.247.092-.471.292-.225.2-.509.508-.898.974h-.001c-.418.5-.896.956-1.257 1.17-.756.452-1.284.857-1.622 1.23l-.134.157c-.237.303-.364.49-.443.659-.076.162-.114.324-.147.59-.027.216-.058.408-.165.582-.104.169-.262.294-.453.436-.404.298-.581.44-.675.552-.069.082-.092.145-.126.352-.182 1.126-1.023 2.007-2.244 2.453-.426.155-.906.361-1.067.453a2.9 2.9 0 0 1-.916.288c-.63.079-1.124.326-1.841.974-.33.299-.463.428-.526.524-.038.057-.05.094-.05.279-.002.584-.22 1.02-.754 1.694-.235.296-.336.524-.371.774-.039.281-.194.681-.379 1.065a7 7 0 0 1-.665 1.115c-.142.19-.426.439-.677.61l-.105.069c-.17.105-.264.181-.335.267a1.6 1.6 0 0 0-.223.41c-.145.351-.322.629-.592.856-.265.222-.6.378-1.029.522-.703.236-1.16.284-1.659.092a4 4 0 0 0-.481-.127l-.189-.035a.06.06 0 0 0-.068.063l.077.914a.3.3 0 0 1-.154.29l-.42.236a.37.37 0 0 0-.188.377c.046.35.012.694-.104 1.021-.098.279-.195.846-.258 1.49-.062.635-.088 1.308-.057 1.783.02.303-.058.642-.183.944a2.3 2.3 0 0 1-.542.805 3 3 0 0 0-.233.238 1.4 1.4 0 0 0-.129.167c.005-.009-.003.006-.015.064a2 2 0 0 0-.033.202 7 7 0 0 0-.044.566 7 7 0 0 0-.004.553q.007.116.016.181c.006.038.01.045.006.035a1 1 0 0 1 .056.15c.016.056.032.125.047.199.03.148.06.332.083.516l.08.645a.3.3 0 0 1-.081.248l-.508.535c-.269.283-.738.852-1.036 1.257a7 7 0 0 1-.526.632 3.2 3.2 0 0 1-.489.447c-.229.151-.261.187-.289.252a1 1 0 0 0-.057.243 12 12 0 0 0-.055.53c-.043.476-.018.72.073.975.058.163.11.31.137.428.023.102.054.286-.056.446-.112.162-.296.195-.4.208-.12.015-.274.016-.445.016h-.167a.44.44 0 0 0-.396.243 4 4 0 0 1-.442.678l-.063.072a.31.31 0 0 0-.069.307l.197.603.121.388q.057.189.101.347c.028.103.052.197.069.272.014.06.032.146.032.211a.6.6 0 0 1-.048.212q-.034.091-.086.193c-.068.136-.16.293-.26.441a5 5 0 0 0-.225.367.8.8 0 0 0-.076.271c-.024.198-.08.43-.145.643-.086.283-.207.588-.333.774l-.044.064q-.003.007.003.012c.169.1.403.26.42.544a.65.65 0 0 1-.089.348 2 2 0 0 1-.209.293 1.1 1.1 0 0 0-.168.281q-.003.01-.002.02a.8.8 0 0 0 .117.316c.081.138.184.25.273.31.117.076.22.177.289.311s.093.28.088.43c-.008.287-.125.635-.309 1.054a5 5 0 0 0-.219.564.7.7 0 0 0-.036.295c.018.129.107.266.447.59l.552.527c.095.09.122.231.066.35l-.401.853c-.543 1.157-.592 1.484-.487 1.875.046.169.072.324.071.487a1.9 1.9 0 0 1-.077.489c-.099.353.01.961.427 1.784l.236.465a.3.3 0 0 1-.002.278l-.287.557c-.196.38-.282.589-.31.742-.023.126-.009.227.065.404.143.343.158.669.109 1.255-.029.342-.052.588-.13.783-.066.163-.166.28-.285.395l-.126.114c-.385.346-.808 1.043-.947 1.566-.1.376.01.89.495 1.696l.157.269c.142.257.238.477.274.686.053.31-.031.559-.172.82-.127.234-.173.447-.212 1.547a93 93 0 0 1-.059 1.471q-.001.005.001.047.003.049.01.122c.01.096.024.211.043.32.03.181.071.388-.024.595a1 1 0 0 1-.182.255q-.107.11-.269.258c-.226.208-.289.277-.318.336-.023.048-.034.109-.034.363 0 .168-.019.344-.05.5a1.4 1.4 0 0 1-.199.518.06.06 0 0 0-.003.045l.013.035c.02.048.051.112.1.208a.44.44 0 0 0 .39.239h.519c.56 0 .945.012 1.28.145.342.136.603.387.959.753l.222.233q.31.334.486.592c.154.225.26.45.261.678q-.002.003.009.053.012.056.037.138c.033.107.078.232.128.345l.057.135c.052.133.089.259.109.389.026.175.019.342-.008.526-.069.458.151.95.716 1.366.265.194.475.393.59.632.107.222.118.447.072.678l-.023.1a2.5 2.5 0 0 0-.047.448c-.008.216-.008.474 0 .737.017.538.065 1.064.129 1.314.096.378.128.915.1 1.488l-.003.044a.765.765 0 0 0 .538.766c.226.068.444.146.616.215q.13.053.226.103a1 1 0 0 1 .092.052.5.5 0 0 1 .105.09l.034.045a.6.6 0 0 1 .089.34c-.001.122-.025.26-.063.409-.042.166-.048.237-.042.291.007.055.029.125.109.282.092.18.328.511.517.718.208.229.542.632.746.902.151.2.266.366.327.529.07.188.06.351.029.52-.029.152-.02.27.206.703.208.4.331.784.331 1.128 0 .467.084.799.258 1.07.177.275.467.521.94.778.781.422 1.33.788 1.682 1.187.368.416.511.855.514 1.382v.056c0 .029.024.053.053.053.309 0 .654.135.969.336.231.149.603.334.81.408.222.078.261.083.31.076.077-.01.186-.056.515-.21.183-.086.372-.159.529-.208q.12-.037.224-.056a1 1 0 0 1 .109-.012.4.4 0 0 1 .147.018l.044.017c.041.02.073.043.091.057q.045.035.085.075.08.081.17.192c.119.146.257.337.387.538.248.385.583.884.744 1.106l.138.208c.139.227.275.495.342.685h.001c.095.268.15.373.221.446.074.077.189.147.478.275.287.127.672.356.87.522v.001c.216.182.439.508.604.811.084.156.16.318.215.467q.045.12.072.246c.005.024.031.039.053.03a9 9 0 0 0 .474-.216c.302-.144.443-.224.523-.292.058-.049.087-.092.125-.209l.051-.142a1 1 0 0 1 .062-.134.5.5 0 0 1 .27-.238.6.6 0 0 1 .34-.009c.095.021.204.059.321.101l.069.023a.12.12 0 0 0 .115-.02c.049-.04.11-.099.202-.189l.116-.11c.114-.104.222-.19.338-.243a.83.83 0 0 1 .502-.055c.052.008.154.008.284-.004q.095-.009.189-.024l.172-.037c.31-.082.839-.108 1.3-.079.346.022.514.024.656 0 .137-.024.267-.075.531-.202l.584-.279a.3.3 0 0 1 .278.008l.649.354c.343.187.992.483 1.432.653.361.139.618.254.875.425.253.169.495.386.839.715.456.437.694.614.879.67.147.044.299.023.647-.155l.094-.045c.097-.044.198-.082.294-.112a1.4 1.4 0 0 1 .373-.07l.078.006a.8.8 0 0 1 .201.063q.121.056.247.138a5.622 5.622 0 0 1 1.03.91c.142.163.274.34.346.5.077.172.201.306.485.455.194.103.354.204.483.342.098.107.169.224.229.355l.057.138a.25.25 0 0 0 .355.129l.025-.014c.231-.128.488-.305.672-.471.193-.175.22-.213.23-.241.012-.031.018-.085-.005-.357l-.043-.518a.31.31 0 0 1 .142-.283l.859-.541c.518-.326.851-.53 1.127-.614.323-.097.563-.031.846.065.222.076.919.245 1.551.374l.489.108c.492.117.971.253 1.188.346l.182.073q.091.034.17.059l.022.007a.14.14 0 0 0 .135-.034c.09-.094.208-.233.34-.403.264-.34.571-.781.813-1.185.232-.388.692-.559 1.135-.587.455-.028.967.087 1.4.353.242.149.624.319.828.373.28.075.653.271.856.456.085.078.147.126.193.154.012.008.027.004.036-.007q.014-.017.032-.045c.059-.09.16-.202.262-.303.106-.106.231-.22.35-.316h.001l.399-.321a.307.307 0 0 1 .426.042l.334.403.072.083c.161.172.273.218.343.223.073.005.198-.028.398-.235l.099-.114c.098-.123.194-.273.269-.426.106-.212.152-.383.152-.467 0-.11.005-.283.138-.442.114-.137.293-.226.505-.304.434-.161 1.253-.363 2.769-.73.398-.096.719-.148 1.013-.085.307.067.538.249.785.492.506.499 1.076.826 1.492.903.34.062.693.292 1.08.636.346.308.732.544 1.169.713l.269.101.093.033a.15.15 0 0 0 .175-.062c.187-.298.518-.468.957-.577.443-.11 1.054-.173 1.878-.21l1.133-.051a.02.02 0 0 0 .017-.015c.011-.104-.008-.156-.039-.196-.04-.053-.128-.124-.318-.203-.121-.05-.277-.121-.372-.249-.123-.166-.096-.345-.068-.458l.001-.002c.005-.023.002-.03.001-.033-.002-.007-.013-.029-.055-.067-.266-.241-.333-.646-.314-.995.019-.367.138-.773.357-1.102v-.001c.142-.214.351-.653.454-.96.058-.176.132-.353.204-.5q.054-.112.11-.202a.8.8 0 0 1 .137-.17l.082-.062q.044-.029.087-.052.094-.053.215-.112c.16-.077.358-.163.562-.247.362-.149.77-.299 1.036-.368a1 1 0 0 0 .156-.05 1 1 0 0 0 .131-.078c.096-.067.197-.155.279-.247.155-.172.294-.335.51-.415a1.1 1.1 0 0 1 .331-.061q.17-.009.421-.007h.245c.147 0 .28-.089.337-.225l.028-.067v-.001c.094-.225.188-.401.364-.579.163-.166.389-.323.719-.537.202-.131.415-.287.595-.432.186-.149.315-.27.365-.333a2 2 0 0 1 .266-.277q.066-.056.139-.101a.46.46 0 0 1 .225-.068l.107.009q.057.008.11.019.119.024.272.064c.202.052.448.122.694.198a17 17 0 0 1 .895.302c.143.055.312-.016.359-.162l.012-.037a3.7 3.7 0 0 1 .247-.603c.088-.163.194-.313.323-.414a.07.07 0 0 0 .016-.086l-.057-.097a2.6 2.6 0 0 1-.174-.374 1.2 1.2 0 0 1-.082-.365c0 .017.001.003-.017-.063a3 3 0 0 0-.068-.213 8 8 0 0 0-.238-.586 7 7 0 0 1-.359-.941c-.069-.247-.109-.489-.067-.684a.52.52 0 0 1 .191-.307.5.5 0 0 1 .355-.086c.2.022.418.144.631.297.294.211.665.048.824-.277a1.5 1.5 0 0 1 .179-.291c.189-.232.425-.317.702-.405.316-.099.559-.236.704-.366.164-.148.12-.2.132-.165a2 2 0 0 1-.068-.436 7 7 0 0 1-.01-.572c.009-.331-.03-.7-.089-.935l-.026-.091-.15-.452a.3.3 0 0 1 .032-.259l.425-.664c.224-.35.64-1.138.921-1.745.145-.314.3-.617.435-.854q.103-.18.189-.307.043-.064.086-.115a.6.6 0 0 1 .109-.106l.147-.107c.327-.247.551-.472.76-.793.246-.379.478-.903.814-1.775l.317-.824a.3.3 0 0 1 .262-.195l.728-.053c.438-.033 1.083-.182 1.867-.442.671-.223 1.524-.447 1.902-.493.015-.002.021-.02.011-.031l-.074-.08c-.268-.285-.473-.533-.547-.8-.083-.3.012-.562.147-.823.145-.28.202-.44.215-.551a.35.35 0 0 0-.032-.195l-.043-.08c-.222-.364-.389-.917-.471-1.387a3.3 3.3 0 0 1-.058-.663c.004-.095.015-.194.042-.283a.6.6 0 0 1 .091-.182c.033-.043.062-.092.057-.146a1.9 1.9 0 0 0-.152-.524c-.083-.193-.149-.358-.158-.548-.01-.183.033-.369.093-.602l.078-.289c.076-.268.15-.475.251-.643.146-.243.335-.382.578-.529.104-.063.17-.104.216-.139a.2.2 0 0 0 .054-.049c.003-.004.017-.022.017-.246 0-.19.02-.36.085-.535a2 2 0 0 1 .293-.499l.189-.256c.422-.589.722-1.122.844-1.479.048-.14.114-.278.184-.392q.054-.087.117-.161a.6.6 0 0 1 .166-.14l.065-.047q.05-.039.129-.109a7 7 0 0 0 .447-.446c.043-.048.034-.124-.013-.169a2 2 0 0 1-.172-.193 5.58 5.58 0 0 1-.638-1.065 2 2 0 0 1-.098-.254.9.9 0 0 1-.045-.252c0-.095.02-.265.046-.445.027-.187.064-.41.104-.622.075-.391.098-.534.091-.637-.005-.078-.028-.135-.147-.363-.206-.395-.272-.753-.306-1.439-.029-.594-.1-.918-.189-1.085-.165-.31-.211-.637-.196-1.097a2 2 0 0 0-.045-.581 4 4 0 0 0-.197-.562l-.229-.549a5 5 0 0 1-.218-.619 1.6 1.6 0 0 1-.032-.637l.007-.078a2.5 2.5 0 0 0-.052-.665 1.8 1.8 0 0 1-.07-.482 1 1 0 0 1 .021-.172c.032-.145.199-.198.331-.132-.132-.066-.203-.234-.183-.38l.011-.098c.022-.207.034-.478.036-.803l.002-.64a.24.24 0 0 0-.166-.23 1.5 1.5 0 0 1-.288-.142 5 5 0 0 1-.343-.231 12 12 0 0 1-.833-.669 13 13 0 0 0-.745-.605 5 5 0 0 0-.269-.186l-.079-.047-.023-.008c-.212-.045-.41-.109-.572-.272-.157-.158-.249-.38-.344-.643-.098-.274-.342-.625-.65-.94-.309-.317-.64-.554-.882-.637-1.006-.347-1.92-.541-2.48-.543-.478-.002-.868-.068-1.218-.227-.431-.195-.776-.426-.941-.726a.8.8 0 0 1-.094-.516c.028-.176.11-.338.222-.485.079-.102.247-.393.366-.641.182-.382.392-.621.736-.797a.8.8 0 0 0 .202-.135q.005-.007.005-.017a1.6 1.6 0 0 0-.137-.433 1.6 1.6 0 0 0-.126-.232l-.014-.019a.1.1 0 0 0-.053-.03 3 3 0 0 0-.198-.023 8 8 0 0 0-.573-.026c-.618-.007-.952-.062-1.345-.257a5.8 5.8 0 0 1-1.019-.66 4 4 0 0 1-.396-.364 1.4 1.4 0 0 1-.261-.37c-.155-.356-.23-.502-.301-.584-.049-.057-.1-.09-.292-.15a1.4 1.4 0 0 1-.503-.268 2.2 2.2 0 0 1-.399-.499 2.3 2.3 0 0 0-.635-.654l-.112-.073a6 6 0 0 1-.687-.538c-.27-.238-.569-.521-.833-.794-.446-.459-.663-.675-.792-.77a.05.05 0 0 0-.051-.002c-.086.04-.202.082-.317.118q-.109.035-.23.069l-.24.06a12 12 0 0 0-1.083.325h-.001c-.423.154-.791.218-1.152.182a24 24 0 0 1-2.595-.477c-.197-.053-.286-.067-.393-.058-.123.011-.282.054-.614.157-.406.128-.728.204-1.027.175-.315-.031-.563-.175-.831-.38-.142-.108-.274-.22-.355-.382s-.092-.336-.092-.512c0-.154-.014-.214-.046-.277-.043-.082-.128-.187-.33-.4-.255-.267-.798-.846-1.208-1.286a9 9 0 0 0-.551-.544 2 2 0 0 0-.186-.152.1.1 0 0 0-.033-.012c-.509-.044-.92-.464-1.153-.99-.171-.389-.366-.572-.523-.632-.134-.052-.308-.04-.533.15-.107.09-.25.172-.387.234a1.8 1.8 0 0 1-.434.138c-.148.023-.192.045-.215.061-.023.017-.058.054-.128.19-.138.269-.292.48-.532.68-.232.193-.534.367-.953.576-.379.19-.871.534-1.11.773-.195.195-.287.304-.334.386a.37.37 0 0 0-.05.217c0 .078 0 .162-.01.234a.47.47 0 0 1-.131.28.48.48 0 0 1-.279.125 2 2 0 0 1-.237.01c-.519 0-.937.17-1.492.666-.319.285-.743.612-.952.721-.341.179-.829.347-1.296.47-.462.12-.945.206-1.273.196a4 4 0 0 0-.286-.002.4.4 0 0 0-.104.016c-.009.003-.023.008-.079.074l-.072.09c-.116.154-.397.617-.618 1.028-.238.442-.603.948-.868 1.175l-.001.001c-.178.153-.331.279-.533.343-.193.06-.408.057-.682.049-.298-.01-.406-.004-.506.03-.109.036-.229.111-.521.318l-.599.422a.3.3 0 0 1-.192.056l-1.876-.103a1.07 1.07 0 0 0-.809.308c-.31.305-.657.529-1.013.628a2 2 0 0 0-.222.073l-.002.003c0 .11-.033.27-.07.416a6 6 0 0 1-.157.507c-.09.246-.126.374-.137.479-.01.096 0 .191.043.377.047.207.089.394.042.602-.043.19-.155.377-.302.619-.188.31-.516.761-.736 1.013a8 8 0 0 0-.599.791c-.197.313-.442.523-.827.734l-.173.091c-.257.129-.384.206-.453.266a.17.17 0 0 0-.069.118.9.9 0 0 1-.193.425.78.78 0 0 1-.446.236c-.275.054-.666.025-1.205-.047l-.48-.067c-.524-.071-.806-.089-1.008-.055-.146.026-.258.08-.415.21l-.175.156c-.202.192-.31.34-.384.547-.081.222-.129.528-.169 1.052-.038.48.145.95.497 1.278l.128.119c.424.394 1.169.98 1.646 1.295.54.356.914.637 1.119.934.109.158.174.324.193.506.018.177-.007.352-.052.527a1.6 1.6 0 0 0-.01.771l.022.124c.045.32.061.836.042 1.238-.018.375-.033.63-.104.85-.074.231-.204.409-.384.648a5 5 0 0 0-.258.373l-.058.103-.001.005q.015.065.044.171c.038.139.092.318.15.501l.062.185c.057.162.101.262.145.332a.45.45 0 0 0 .13.14l.064.041.167.107c.158.112.288.244.372.437.102.234.118.525.118.888 0 .279-.005.494-.068.687-.067.202-.189.357-.343.541-.23.276-.27.411-.266.485.003.066.047.178.297.392.395.338.682.656.796 1.002.125.377.028.725-.182 1.064-.115.187-.178.434-.248 1.363-.044.594-.061.854-.038 1.072.022.209.082.384.235.811.287.799.457 1.312.478 1.682.011.201-.02.378-.105.543-.081.156-.2.282-.324.397a.032.032 0 0 0-.002.047l.139.154c.295.327.589.512.801.572.105.029.17.023.202.012.024-.007.046-.021.065-.065a.9.9 0 0 1 .135-.196 3 3 0 0 1 .179-.182c.134-.125.299-.264.465-.392.165-.128.338-.251.486-.343a2 2 0 0 1 .213-.118.6.6 0 0 1 .249-.066l.09.009q.043.008.072.017.07.02.148.05c.103.039.222.091.335.149.18.092.336.187.462.371.111.163.187.38.278.668l.064.209c.059.194.098.347.106.478.012.215-.057.363-.135.513a2 2 0 0 0-.106.241q0 .01.008.011c.258 0 .576.114.78.274a.5.5 0 0 0 .142.092h.013a1 1 0 0 0 .076-.022c.023-.008.036-.032.036-.056l-.001-.092a1.6 1.6 0 0 1 .011-.317.6.6 0 0 1 .041-.154.4.4 0 0 1 .074-.11.33.33 0 0 1 .233-.1l.05.004a.4.4 0 0 1 .216.108 1 1 0 0 1 .118.138c.067.095.136.218.199.348.127.26.254.59.313.867.046.214.074.279.102.317.026.035.074.076.254.172.105.055.212.106.295.141a.09.09 0 0 0 .1-.019q.052-.052.112-.13c.121-.158.207-.33.225-.43l.02-.088a2 2 0 0 1 .086-.256c.041-.099.1-.215.175-.297-.007.008.004-.004.033-.057q.037-.072.087-.184c.067-.149.141-.337.204-.525.082-.239.153-.437.227-.597.073-.16.157-.301.269-.412.245-.242.551-.264.871-.264h.032c.01 0 .017-.011.013-.021a4 4 0 0 1-.148-.416 1.6 1.6 0 0 1-.067-.372c0-.163.079-.312.15-.417.078-.116.181-.229.292-.33.213-.193.508-.388.783-.444l.081-.025a.7.7 0 0 0 .272-.233c.131-.171.261-.432.384-.801.34-1.022 1.22-1.902 2.276-2.298.226-.085.392-.153.513-.214a.7.7 0 0 0 .208-.141c.028-.032.061-.077.008-.36a3 3 0 0 1-.033-.213c-.03-.263-.188-.54-.347-.752a.94.94 0 0 1-.175-.538c-.01-.378.158-.804.454-1.193.169-.221.188-.294.188-.335 0-.051-.028-.142-.2-.402-.119-.178-.228-.342-.262-.51-.041-.201.028-.367.086-.504l.053-.15c.048-.163.082-.364.096-.573a2.2 2.2 0 0 0-.054-.707c-.08-.268-.392-.558-1.057-.758-.388-.116-.651-.332-.981-.737-.306-.377-.518-.738-.651-1.176-.131-.431-.18-.92-.185-1.542l-.007-.992a.3.3 0 0 1 .099-.227l.46-.422.001-.001c.129-.119.23-.231.295-.32a.7.7 0 0 0 .063-.103.1.1 0 0 0 .005-.024c.008-.26.101-.521.256-.789.163-.28.402-.583.716-.92.336-.361.73-.801.875-.976.244-.295.523-.456.925-.56.314-.082.701-.273 1.044-.508.35-.24.608-.493.707-.674.098-.178.207-.326.361-.459.151-.128.332-.232.559-.34.338-.16.468-.276.544-.436.089-.186.125-.479.125-1.066v-.84c0-.08.032-.158.089-.215l.377-.376c.167-.167.312-.306.497-.383.187-.079.385-.084.616-.084.318 0 .59-.065.991-.254l.6-.284a.3.3 0 0 1 .184-.025l.758.136.313.052c.268.042.505.072.617.08a.2.2 0 0 0 .078-.01 1 1 0 0 0 .124-.057 2.4 2.4 0 0 0 .352-.25 3.5 3.5 0 0 0 .683-.757c.157-.25.325-.455.512-.582a.72.72 0 0 1 .671-.098c.056.02.132.065.196.103q.114.069.278.173c.216.138.491.32.776.512.569.383 1.196.82 1.496 1.052.147.113.217.15.305.174.105.027.256.037.578.038.314.001.55.015.804.076.249.06.503.161.857.319l.185.084c.416.197.731.397.928.695.228.344.264.765.254 1.297-.007.388.004.485.054.571a.8.8 0 0 0 .175.193c.102.09.24.196.438.346.487.371.781.924 1.133 1.956.142.414.405.776.756 1.037l.365.273c.54.402 1.099.817 1.244.922a1 1 0 0 1 .324.378c.074.152.119.332.155.545.043.253.229.77.415 1.13.173.333.29.511.49.689.215.191.532.39 1.132.734.538.309.812.918 1.1 2.027.142.546.247.883.361 1.133.11.24.231.408.419.605l.3.316a.31.31 0 0 1 .053.343l-.214.438c-.145.298-.182.484-.182 1.282v.429c0 .268.107.525.298.714l.164.174q.077.088.138.168t.106.157a1 1 0 0 1 .041.087.4.4 0 0 1 .029.144.8.8 0 0 1-.028.184 3 3 0 0 1-.059.191 7 7 0 0 1-.195.485 16 16 0 0 1-.609 1.225c-.339.615-.372.769-.355.994.011.144-.007.358-.036.571a8 8 0 0 1-.091.519l-.04.17c-.084.335-.148.574-.247.752-.114.204-.263.313-.439.425-.213.134-.301.224-.348.31-.048.087-.076.212-.076.471 0 .27-.068.675-.156.924a5 5 0 0 0-.192.782 2.3 2.3 0 0 1-.119.447c-.05.135-.118.28-.199.383a.8.8 0 0 1-.403.301c-.16.051-.356.057-.593.057-.136 0-.229.001-.297.006a.4.4 0 0 0-.099.016l-.003.002-.014.015a1 1 0 0 0-.097.143c-.156.252-.214.413-.22.593-.007.197.047.448.192.886l.266.801a.3.3 0 0 1-.03.256l-.498.801c-.135.217-.265.46-.368.68a3 3 0 0 0-.196.516c-.045.211-.097.39-.197.548a1.4 1.4 0 0 1-.404.39c-.189.132-.42.406-.626.753-.204.343-.36.721-.422 1.032v.001a3.4 3.4 0 0 1-.128.47 2 2 0 0 1-.08.191.6.6 0 0 1-.137.181.5.5 0 0 1-.111.067 1 1 0 0 1-.097.037 2 2 0 0 1-.229.062 7 7 0 0 1-.282.056l-.315.046a1.8 1.8 0 0 0-1.08.549l-.296.314c-.228.242-.457.47-.645.643a5 5 0 0 1-.251.219 2 2 0 0 1-.104.076.5.5 0 0 1-.131.067.8.8 0 0 1-.26.026 2 2 0 0 1-.269-.032 6 6 0 0 1-.641-.157c-.445-.134-.945-.328-1.241-.518-.198-.127-.293-.174-.373-.195-.074-.019-.158-.022-.35-.001q-.446.051-.726.102a.055.055 0 0 0-.032.09c.106.116.213.259.301.396.085.133.166.281.207.406.05.152.09.307.059.487-.029.163-.111.32-.21.495-.12.21-.295.587-.383.825a2.3 2.3 0 0 1-.247.468 1.9 1.9 0 0 1-.332.387c-.169.143-.398.43-.673.875a18 18 0 0 0-.903 1.695c-.407.857-.627 1.236-.972 1.449-.173.107-.464.368-.749.67-.286.302-.521.598-.605.759-.073.142-.121.38-.109.726.011.294.028.523-.081.776-.052.12-.127.237-.222.368s-.221.293-.383.499c-.276.352-.481.601-.716.744-.257.157-.52.171-.834.171-.615 0-1.113-.185-1.657-.594-.16-.12-.203-.141-.275-.153-.107-.017-.273-.01-.683.022-.476.037-.8.099-1.076.207-.274.107-.52.268-.827.534-.273.237-.673.512-.906.611-.189.08-.53.228-.757.328a4 4 0 0 1-.353.141 1 1 0 0 1-.318.055.64.64 0 0 1-.435-.191l-.099-.101a3 3 0 0 0-.404-.352c-.134-.096-.136-.086-.151-.086a.8.8 0 0 0-.16.023c-.09.019-.207.049-.372.091-.307.079-.52.132-.731.133-.215.001-.412-.051-.685-.127-.315-.087-.876-.153-1.364-.153-.493 0-1.155-.07-1.511-.166a34 34 0 0 0-.578-.145l-.585-.135c-.396-.086-.7-.177-.966-.319-.271-.146-.484-.336-.715-.591-.187-.207-.233-.244-.28-.263-.055-.023-.139-.03-.455-.028-.327.003-.701.003-.842.002a1.864 1.864 0 0 0-.238.086 4 4 0 0 0-.237.113l-.251.141c-.341.206-.606.352-.825.399a.65.65 0 0 1-.371-.018.76.76 0 0 1-.281-.187.58.58 0 0 1-.185-.352.6.6 0 0 1 .038-.267c.014-.04-.006-.086-.047-.098a21.418 21.418 0 0 0-1.417-.352 6 6 0 0 0-.26-.05c-.079-.013-.102-.013-.092-.013-.127.006-.516.036-.865.066-.293.026-.515.046-.735-.015-.215-.059-.412-.192-.687-.375a2.9 2.9 0 0 0-.938-.429c-.34-.083-.747-.118-1.312-.115-.449.001-1.069-.064-1.392-.153a108 108 0 0 0-1.395-.369h-.001c-.529-.136-.88-.239-1.182-.43-.304-.192-.539-.46-.871-.867a11 11 0 0 0-.579-.677 4.6 4.6 0 0 0-.498-.428.7.7 0 0 0-.247-.137 1.5 1.5 0 0 0-.403-.038 2.8 2.8 0 0 1-1.215-.282c-.25-.114-.372-.16-.501-.179-.134-.02-.292-.015-.617.015q-.328.031-.569.025a1.3 1.3 0 0 1-.448-.086c-.269-.114-.396-.331-.473-.569l-.03-.103c-.021-.079-.075-.19-.28-.42-.204-.229-.533-.548-1.068-1.045-.392-.365-.76-.729-1.05-1.038-.281-.298-.513-.569-.612-.739a4.4 4.4 0 0 0-.716-.843c-.957-.855-1.194-1.096-1.495-1.565a2.4 2.4 0 0 1-.229-.462 1.4 1.4 0 0 1-.096-.46c0-.072-.01-.127-.079-.233-.082-.126-.233-.301-.517-.601a11 11 0 0 1-.493-.553 4 4 0 0 1-.16-.206 1 1 0 0 1-.085-.148.3.3 0 0 1-.024-.125c0-.101.031-.212.06-.297a2.7 2.7 0 0 1 .272-.568q.04-.06.087-.117a.6.6 0 0 1 .125-.113l.085-.042a1.863 1.863 0 0 1 .249-.071c.123-.027.27-.05.413-.065l.119-.015a.126.126 0 0 0 .102-.161 4 4 0 0 0-.186-.471c-.157-.349-.262-.642-.2-.998.056-.325.25-.675.545-1.169.16-.269.227-.4.269-.568.046-.182.066-.419.094-.907.029-.53.023-.823.162-1.172.129-.325.389-.716.89-1.511.318-.504.369-1.066.208-1.435l-.035-.071a60 60 0 0 0-.468-.844 3 3 0 0 0-.246-.388c-.05-.062-.068-.066-.07-.067-.025-.009-.051-.012-.177-.029a2 2 0 0 1-.427-.091.7.7 0 0 1-.349-.251.8.8 0 0 1-.128-.407 3 3 0 0 1 .02-.469c.02-.193.058-.388.109-.559a1.6 1.6 0 0 1 .2-.452c.161-.229.117-.526-.144-.711a1 1 0 0 1-.319-.337.94.94 0 0 1-.096-.451c0-.123-.014-.141-.025-.156-.028-.041-.095-.102-.297-.242-.795-.55-1.278-.897-1.598-1.19a2.6 2.6 0 0 1-.662-.905 6 6 0 0 0-.182-.361.5.5 0 0 0-.091-.126c-.038-.031-.09-.051-.416-.105a.906.906 0 0 1-.703-.495c-.138-.263-.205-.635-.255-1.12-.035-.338-.062-.628.059-.885a1.1 1.1 0 0 1 .262-.335q.159-.139.395-.308c.153-.111.219-.176.269-.259.057-.093.106-.228.183-.505l.073-.285c.073-.304.141-.645.169-.85l.025-.167c.027-.16.066-.302.139-.436.097-.177.241-.313.422-.469.217-.187.462-.451.54-.57.076-.116.209-.244.34-.353.137-.114.299-.23.457-.322.213-.125.308-.191.356-.25.02-.025.044-.058.018-.187-.031-.151-.123-.378-.31-.744a49 49 0 0 0-.802-1.461 118 118 0 0 0-1.006-1.755 5 5 0 0 1-.246-.477 2 2 0 0 1-.081-.207.7.7 0 0 1-.041-.213q0-.001-.011-.072a6.756 6.756 0 0 0-.102-.424l-.075-.26c-.111-.357-.168-.67-.131-.947.04-.297.184-.523.406-.707-.013.01-.006.007.024-.035a2 2 0 0 0 .09-.142c.069-.118.146-.269.214-.42.076-.17.167-.343.253-.486a3 3 0 0 1 .127-.194 1 1 0 0 1 .142-.158c.028-.023.099-.095.2-.208.096-.107.205-.237.303-.36.154-.195.223-.302.259-.392a.9.9 0 0 0 .048-.342c0-.662.145-1.156.51-1.59.111-.132.132-.176.142-.214.012-.05.014-.129-.012-.352a18 18 0 0 1-.13-1.542 3 3 0 0 1 .013-.464q.01-.095.035-.182a.5.5 0 0 1 .096-.185l.071-.082a.6.6 0 0 1 .102-.084.45.45 0 0 1 .328-.067.8.8 0 0 1 .261.105q.118.069.279.18c.092.063.15.101.195.126a.07.07 0 0 0 .064.003q.032-.014.096-.05c.186-.099.535-.233.789-.306h.001c.117-.034.168-.053.195-.066q.006-.003.007-.01c.009-.054.007-.158-.021-.365-.027-.2-.074-.467-.139-.833-.124-.696-.155-1.064-.054-1.402.053-.175.139-.528.188-.78.03-.148.079-.31.135-.45.053-.136.122-.28.201-.38l.018-.03c.021-.038.052-.106.082-.211.038-.133.069-.3.089-.489.048-.44.095-.754.223-1.033.129-.283.329-.509.619-.803.223-.228.392-.397.574-.491.203-.106.401-.11.621-.11.268 0 .488-.06.634-.15l.095-.06a.11.11 0 0 0 .05-.093v-.02l-.022-.31c-.024-.257-.034-.458.012-.661.045-.202.14-.386.273-.621.208-.368.31-.665.332-.927.023-.256-.029-.501-.165-.77-.142-.28-.251-.515-.271-.712a.6.6 0 0 1 .061-.337.8.8 0 0 1 .197-.23c.377-.31.6-.763.6-1.128 0-.649.207-1.215.651-1.564.12-.094.343-.33.48-.516l.073-.091c.184-.217.471-.463.698-.597.098-.058.199-.13.281-.2q.061-.052.098-.09c.026-.027.032-.038.028-.032l.082-.135c.111-.174.298-.452.476-.709.179-.258.269-.408.316-.524a.6.6 0 0 0 .047-.22l-.001-.088c-.03-.635-.051-1.13-.052-1.519-.001-.385.017-.686.07-.925.055-.249.152-.442.312-.6.15-.148.339-.246.531-.337a13 13 0 0 1 1.021-.423c.239-.085.418-.151.677-.136.226.013.517.09 1.005.217.426.111.728.192.958.244.233.053.359.069.439.064a.23.23 0 0 0 .144-.057c.072-.055.148-.136.301-.292.225-.229.397-.393.552-.488a.688.688 0 0 1 .463-.108.2.2 0 0 0 .049-.002 4 4 0 0 0 .184-.048c.155-.044.358-.107.572-.18h.001c.329-.111.566-.183.766-.213.216-.033.382-.017.569.03.093.023.137.032.167.034.018.002.018 0 .018 0a.4.4 0 0 0 .099-.074 6 6 0 0 0 .247-.24l.128-.12c.319-.28.779-.57 1.269-.809.871-.423 1.3-.548 2.641-.785.906-.16 2.025-.391 2.346-.484.303-.087.833-.272 1.34-.462.512-.192.973-.379 1.148-.469.133-.068.291-.128.438-.17.142-.04.3-.073.43-.073l.1.006c.103.012.216.039.321.069a4.6 4.6 0 0 1 .89.366q.093.051.171.11l.066.055a.3.3 0 0 0 .098.066q.056.018.127.035l.152.03c.151.022.249.024.327.013a.7.7 0 0 0 .243-.087c.264-.142.544-.204.826-.117.273.084.489.29.671.552q.116.167.188.245c.04.044.103.05.153.019l.005-.003c.048-.032.062-.053.069-.068a.35.35 0 0 0 .023-.154c0-.117.017-.237.047-.341a1 1 0 0 1 .061-.157.5.5 0 0 1 .128-.162.5.5 0 0 1 .119-.065 1 1 0 0 1 .098-.032q.1-.027.233-.05c.173-.03.39-.059.611-.077.318-.026.491-.05.595-.08.081-.023.093-.042.106-.06.431-.597.965-1.112 1.411-1.301a63 63 0 0 0 1.027-.45c.175-.079.351-.15.495-.203q.11-.041.195-.066a.7.7 0 0 1 .188-.035.6.6 0 0 1 .184.037q.076.027.157.065c.108.051.234.12.352.194.205.13.578.254 1.104.339a10 10 0 0 1 1.479.362l.126.046c.23.082.484.073.708-.026.26-.115.43-.264.52-.416l.053-.082c.131-.188.319-.351.512-.471.217-.135.483-.241.733-.242-.012 0 0 0 .051-.011q.065-.016.167-.046a6 6 0 0 0 .452-.163 3.3 3.3 0 0 1 1.341-.265q.574 0 1.08-.196c.275-.106.479-.17.817-.198.32-.027.765-.023 1.525-.01.657.012 1.077.012 1.358-.004.214-.012.326-.033.389-.053l.05-.02c.196-.1.586-.202.879-.241.235-.032.744-.199 1.111-.375.21-.1.416-.183.588-.238a2 2 0 0 1 .242-.061.6.6 0 0 1 .266.006.6.6 0 0 1 .114.053q.045.028.095.062.1.07.229.173c.172.136.381.314.587.501.324.295.505.445.656.536.139.083.261.122.487.166h.001c.315.062.738.176.949.262h.001c.165.066.905.278 1.659.47l1.175.3c.379.099.715.187.916.241.387.105.974.216 1.291.247.48.046.816.15 1.159.381.164.11.246.151.312.169.06.016.131.02.286-.002.739-.1 1.408.056 1.838.416.217.182.375.419.434.696.058.279.012.573-.135.857-.086.166.061.344.243.301a5 5 0 0 0 .254-.065l.142-.038c.138-.034.264-.055.394-.057.175-.003.338.027.526.078l.191.04c.216.038.495.067.696.067.317 0 .617.05.835.236.23.196.298.48.298.775l.002.023.013.063q.018.079.055.19c.048.146.115.315.189.468.204.425.356.974.439 1.563l.065.46c.014.098.095.174.195.181l.084.004c.197-.001.418-.055.717-.192.139-.063.276-.128.383-.162.097-.031.309-.083.481.077a.5.5 0 0 1 .129.21q.031.097.046.202c.021.135.036.321.057.545.071.785.237 1.32.78 2.445.131.27.218.453.293.582.058.1.092.137.107.149q.006.006.016.006a.4.4 0 0 0 .096-.013c.11-.025.257-.076.495-.159l.233-.075c.271-.082.635-.179.924-.246.372-.087.643-.138.954-.1.298.038.615.156 1.089.346.281.112.653.184.966.184.46 0 .774.07 1.139.272.213.118.575.265.786.32.453.12.789.413 1.737 1.359.319.317.639.621.897.855.129.116.242.214.329.286q.066.054.109.086l.038.027c.044.022.145.057.286.092.135.033.285.06.415.074l.211.026q.101.015.192.04a.7.7 0 0 1 .352.222c.092.112.14.247.173.382q.026.1.047.227l.043.274.017.082c.051.212.189.553.333.792l.072.128c.171.314.344.734.41 1.013.108.456.198.753.355 1.085.159.338.391.722.794 1.349l.608.943c.045.07.129.105.21.088.22-.046.758-.078 1.196-.078.326 0 .563.01.752.045.206.04.352.112.497.22.195.146.365.324.414.573.048.243-.036.478-.154.697a.083.083 0 0 0 .081.124q.048-.004.108-.013c.333-.05.637-.07.893.055.267.131.415.383.542.665.091.201.15.296.267.404.134.123.347.265.772.528.261.162.52.33.726.474q.156.109.269.195c.067.052.138.109.183.159.106.117.17.277.215.44q.068.256.1.611c.034.371.195.719.455.985l.163.165c.47.479.841.999 1.045 1.434.1.213.173.432.179.627a.65.65 0 0 1-.065.317.5.5 0 0 1-.251.236 1 1 0 0 0-.051.059 2.005 2.005 0 0 0-.263.518.7.7 0 0 0-.039.19.3.3 0 0 0 .037.036c.066.055.178.125.374.233l.225.122.233.129c.522.302.898.624 1.088 1.054.219.494.162 1.058-.03 1.741-.196.7-.318 1.12-.452 1.383a1 1 0 0 1-.263.345 1.4 1.4 0 0 1-.328.193l-.047.022a.04.04 0 0 0-.016.05q.03.058.064.135c.045.1.098.233.157.385.117.306.259.704.396 1.12.135.409.284.818.416 1.148.065.165.126.308.177.42.054.119.091.186.107.21.151.218.358.63.472.93.1.266.281.591.383.713.369.438.628.944.616 1.376.001-.017-.002-.018.005.012q.008.038.027.105.042.138.122.35c.107.281.258.637.428 1.001l.618 1.323a.3.3 0 0 1 .028.148l-.073 1.162a13 13 0 0 0-.026.87q.003.176.013.283l.007.065a.03.03 0 0 0 .009.019.5.5 0 0 0 .068.061 1 1 0 0 0 .207.119c.151.059.289.132.399.239a.8.8 0 0 1 .219.394c.033.132.168.52.304.859l.246.617a.3.3 0 0 1 .017.163l-.313 1.869a.3.3 0 0 1-.099.179l-.525.461c-.237.209-.336.31-.391.397-.046.074-.071.154-.099.361-.031.22-.07.407-.181.591-.104.174-.261.327-.471.515-.138.125-.276.24-.387.325a1.29 1.29 0 0 1-.229.152.14.14 0 0 0-.048.033l-.011.013a2 2 0 0 0-.173.24c-.102.16-.205.309-.346.405a.8.8 0 0 1-.483.124 2.4 2.4 0 0 1-.793-.169 1.3 1.3 0 0 0-.48-.115.85.85 0 0 0-.398.107 1 1 0 0 0-.098.058q-.013.01-.009.025c.021.066.078.173.202.349.12.172.29.388.516.669.133.164.255.333.345.475a2 2 0 0 1 .115.199q.023.046.042.097c.01.027.027.081.027.143a.8.8 0 0 1-.029.181 3 3 0 0 1-.057.195 8 8 0 0 1-.179.487c-.12.297-.291.986-.372 1.521-.08.536-.158.919-.321 1.207-.176.311-.433.481-.767.652a2 2 0 0 0-.306.177l-.003.002a.06.06 0 0 0-.021.057 1 1 0 0 0 .04.132c.045.122.12.283.232.513.11.229.212.457.286.641.037.091.069.176.092.245q.017.052.03.1a.2.2 0 0 0 .047.103c.05.055.125.12.21.176.341.226.547.513.755.981.138.31.503.96.81 1.436.364.564.591.984.706 1.488.113.497.111 1.055.068 1.885l-.065 1.258a.3.3 0 0 1-.09.2l-.758.751c-.412.407-.65.68-.799.927-.143.237-.212.464-.256.792a1.6 1.6 0 0 1-.176.583c-.098.18-.24.355-.433.567-.246.271-.342.422-.375.545-.03.109-.021.238.07.499a1 1 0 0 1 .05.502 2.3 2.3 0 0 1-.131.438l-.071.179a8 8 0 0 0-.216.603c-.015.053-.009.046-.009.015 0 .044-.009.086-.013.105l-.022.083a5 5 0 0 1-.067.21c-.055.159-.13.359-.211.563a8 8 0 0 0-.198.551q-.037.121-.057.201c-.015.061-.014.077-.014.064a.6.6 0 0 1-.084.276 2 2 0 0 1-.155.225 5 5 0 0 1-.496.528l-.001.001c-.372.353-.593.566-.794.686-.23.137-.439.155-.71.187-.289.034-.414.065-.518.121-.109.06-.22.162-.443.41a2.7 2.7 0 0 1-.333.316 1.4 1.4 0 0 1-.163.112c-.019.01-.049.026-.087.04-.053.02-.106.038-.149.075a2 2 0 0 0-.229.239l-.319.398a.3.3 0 0 1-.251.112l-.418-.018c-.471-.02-.881.336-.976.798-.048.233-.056.325-.043.415.015.1.059.22.184.499.115.255.197.45.226.624a1 1 0 0 1-.069.521c-.051.143-.074.397-.036.683l.066.5a.3.3 0 0 1-.092.26l-.702.669c-.258.245-.39.595-.358.949.039.434.02.8-.102 1.177-.12.371-.334.733-.647 1.167-.352.489-.541.763-.644.945-.093.166-.099.228-.099.3 0 .228-.088.43-.261.59-.16.151-.384.255-.645.333-.523.158-1.317.246-2.426.297-.411.018-.716.034-.951.059a2 2 0 0 0-.481.095c-.161.064-.236.156-.424.524-.18.351-.442.558-.895.786a2.3 2.3 0 0 0-.688.508c-.159.182-.217.338-.218.446-.002.239-.091.527-.209.788a3.4 3.4 0 0 1-.475.768c-.213.252-.46.432-.783.468-.306.035-.625-.067-.967-.235a.87.87 0 0 0-.789.015l-.178.095c-.327.175-.549.292-.772.345a1.7 1.7 0 0 1-.541.026l-.211-.018c-.177-.017-.329.117-.375.288-.082.304-.244.641-.478 1.031l-.16.257c-.204.318-.286.461-.326.585-.036.113-.042.224-.033.502.015.426-.021.832-.099 1.168a2.3 2.3 0 0 1-.152.458 1 1 0 0 1-.261.352c-.227.183-.565.24-.87.235a2.5 2.5 0 0 1-.984-.218c-.277-.125-.386-.154-.485-.149-.11.006-.248.055-.575.216-.217.106-.33.179-.424.272-.099.097-.193.233-.347.496-.213.365-.585.833-.847 1.053-.204.17-.664.671-1.013 1.113-.324.408-.578.694-.81.862a1 1 0 0 1-.384.181 1 1 0 0 1-.131.017.63.63 0 0 0-.383.153q-.087.076-.198.151a4 4 0 0 1-.515.292c-.364.174-.66.398-.78.555-.177.232-.564.544-.872.717-.314.177-.487.313-.602.461-.113.145-.19.327-.259.638a3 3 0 0 1-.136.449 2 2 0 0 1-.082.183.6.6 0 0 1-.134.172.5.5 0 0 1-.117.07 2.561 2.561 0 0 1-.342.094c-.178.036-.401.07-.628.093q-.382.04-.613.099a1 1 0 0 0-.244.085l-.036.022a62 62 0 0 1-1.148.797c-.782.532-1.607 1.311-2.494 2.365-.142.17-.275.304-.436.403-.164.1-.337.149-.536.184l-.001.001c-.267.047-.455.143-.867.509-1.635 1.458-3.58 2.073-5.022 1.402-.323-.151-.86-.502-1.21-.786-.33-.268-.473-.365-.645-.412-.187-.051-.431-.051-.984-.024-.533.026-1.369-.182-2.186-.478-.829-.301-1.698-.713-2.31-1.136l-.002-.002-.007-.003q-.008-.006-.024-.013a1 1 0 0 0-.079-.037 6.968 6.968 0 0 0-.9-.278c-.382-.09-.59-.13-.76-.14a1.5 1.5 0 0 0-.371.026l-.162.031c-.41.086-1.055.105-1.853.067-.854-.04-1.384-.015-1.872.078a7.5 7.5 0 0 1-1.349.139c-.346.001-.673-.031-.923-.114l-.102-.039c-.222-.095-.546-.343-.746-.554-.319-.334-.67-.395-.884-.298a6 6 0 0 0-.695.455 5 5 0 0 1-1.02.551l-.134.046c-.287.091-.433.16-.544.251-.112.093-.212.229-.367.505-.17.305-.413.504-.82.724l-.185.096c-.264.133-.418.225-.522.311a.8.8 0 0 0-.217.275c-.086.167-.18.313-.325.428a1.4 1.4 0 0 1-.502.233l-.002-.001a2 2 0 0 0-.302.117 1 1 0 0 0-.125.073l-.017.019a.7.7 0 0 1-.212.153.7.7 0 0 1-.295.074c-.193 0-.453.133-.759.558-.275.383-.537.669-.841.859-.311.195-.643.275-1.031.293-.163.007-.36.018-.546.029l-.476.035c-.26.023-.739.023-1.074.001-.261-.017-.469-.036-.655-.116-.192-.083-.335-.218-.498-.385l-.364-.373a.305.305 0 0 1 .044-.462l.208-.146.031-.025a.03.03 0 0 0 .009-.019l-.018-.129a.082.082 0 0 0-.131-.051 4 4 0 0 0-.268.23.3.3 0 0 1-.228.079c-.32-.025-.462-.014-.58.031-.124.047-.258.145-.522.396l-.529.5a.3.3 0 0 1-.276.076l-.526-.118a3 3 0 0 1-.489-.153 2 2 0 0 1-.314-.152l-.085-.059c-.09-.071-.226-.123-.587-.123-.229 0-.431-.003-.599-.07-.192-.077-.304-.219-.407-.357a7 7 0 0 0-.561-.632c-.16-.158-.285-.3-.37-.477s-.119-.365-.145-.59a4 4 0 0 0-.099-.537.1.1 0 0 0-.038-.056h-.001a3 3 0 0 0-.195-.132 7 7 0 0 0-.626-.342 7 7 0 0 1-.688-.38c-.13-.082-.305-.056-.427.036q-.134.101-.322.184c-.308.139-.766.272-1.451.446-1.215.31-1.643.345-4.367.4-.416.009-.919-.015-1.343-.055a8 8 0 0 1-.571-.071 3 3 0 0 1-.217-.045 1 1 0 0 1-.188-.067l-.001-.001a.8.8 0 0 0-.342-.064c-.154 0-.315.026-.445.076a.73.73 0 0 1-.501.03c-.158-.048-.328-.156-.535-.295a3 3 0 0 0-.42-.23 1.6 1.6 0 0 0-.341-.121c-.233-.04-.427-.14-.703-.363-.267-.217-.639-.572-1.228-1.152-.385-.38-.776-.788-1.096-1.141-.313-.346-.576-.658-.69-.837a3.9 3.9 0 0 0-.925-.971c-.369-.274-.719-.436-.956-.461-.346-.036-.603-.129-.847-.322l-.104-.089a8 8 0 0 0-.829-.615c-.341-.219-1.037-.838-1.556-1.372l-.128-.131a2.44 2.44 0 0 0-1.755-.742h-.795a.3.3 0 0 1-.198-.074l-.408-.349c-.222-.19-.267-.219-.32-.233a.6.6 0 0 0-.155-.009 8 8 0 0 0-.373.032c-.399.04-.706.059-.945-.011a.85.85 0 0 1-.46-.337l-.102-.158-.184-.31a.305.305 0 0 1 .06-.382l.561-.502c.165-.148.272-.252.336-.333l.002-.002a.5.5 0 0 0 .001-.171 3 3 0 0 0-.337-.313 1.6 1.6 0 0 0-.365-.25.8.8 0 0 0-.234-.056l-.111-.009c-.253-.012-1.057-.055-1.788-.097l-1.33-.075a.3.3 0 0 1-.193-.084l-.353-.34c-.256-.247-.445-.473-.564-.738-.12-.268-.157-.548-.157-.879 0-.243-.011-.328-.026-.369-.003-.01-.003-.025-.096-.089-.377-.26-.647-.472-.828-.707a1.5 1.5 0 0 1-.295-.701l-.018-.114a9 9 0 0 0-.221-1.037 4 4 0 0 0-.088-.277.3.3 0 0 0-.043-.085c-.003-.004-.009-.015-.101-.044l-.123-.036a9 9 0 0 1-.853-.264 1.8 1.8 0 0 1-.565-.319c-.321-.288-.368-.671-.384-1.118a.65.65 0 0 0-.357-.553l-.567-.282c-.3-.149-.611-.315-.871-.463a8 8 0 0 1-.489-.295l-.105-.075c-.207-.162-.256-.181-.316-.187a.8.8 0 0 0-.205.022 7 7 0 0 0-.435.112 3 3 0 0 1-.471.1.8.8 0 0 1-.441-.068.8.8 0 0 1-.32-.31 3 3 0 0 1-.219-.443 3 3 0 0 0-.493-.736l-.001-.001a10 10 0 0 1-.588-.711l-.18-.245a18 18 0 0 0-.78-1.018 5 5 0 0 1-.352-.48 2.3 2.3 0 0 1-.234-.44c-.046-.133-.22-.44-.389-.662-.138-.183-.243-.341-.306-.522a1.7 1.7 0 0 1-.079-.583c-.001-.305-.074-.583-.359-1.192l-.104-.228c-.223-.507-.311-.836-.311-1.232-.001-.288.03-.566.214-.783.177-.21.45-.302.747-.372.063-.015.136-.039.198-.064a.09.09 0 0 0 .06-.097 1 1 0 0 0-.034-.15c-.067-.228-.216-.547-.453-.938l-.149-.248a.86.86 0 0 0-.642-.407 8 8 0 0 0-.927-.056 2 2 0 0 0-.137.009c-.047.004-.088.03-.128.055a.6.6 0 0 1-.091.046 1 1 0 0 1-.167.046c-.113.022-.25.034-.387.035-.194-.001-.37-.013-.54-.086-.169-.072-.303-.191-.446-.333-.229-.23-.381-.487-.414-.801-.031-.303.054-.618.205-.956l.036-.086c.075-.197.095-.372.073-.536-.036-.265.004-.604.072-.888.035-.145.08-.288.134-.41a.9.9 0 0 1 .227-.334.3.3 0 0 1 .155-.068.7.7 0 0 1 .449.1c.058.034.135.016.159-.047l.007-.019c.039-.106.069-.223.082-.323.036-.285.183-.805.325-1.172l.07-.187c.06-.164.088-.261.098-.335a.5.5 0 0 0-.035-.252c-.076-.23-.121-.473-.032-.702.092-.233.29-.376.502-.483.214-.108.335-.192.408-.268a.47.47 0 0 0 .126-.245.55.55 0 0 0 .001-.305c-.02-.057-.063-.117-.16-.181l-.012-.008a.17.17 0 0 0-.148-.018 3 3 0 0 0-.229.095 1.7 1.7 0 0 1-.566.157.7.7 0 0 1-.52-.154.77.77 0 0 1-.249-.481 2 2 0 0 1 .018-.604c.01-.058.004-.175-.034-.352a4 4 0 0 0-.179-.58 5.3 5.3 0 0 0-.636-1.194c-.211-.284-.354-.491-.441-.813-.081-.298-.112-.69-.157-1.338-.026-.361-.051-.574-.093-.737a1.4 1.4 0 0 0-.195-.433c-.161-.26-.331-.65-.374-.893a.22.22 0 0 0-.17-.176l-.647-.137c-.549-.117-1.141-.205-1.319-.206-.151 0-.299-.002-.421-.026a.55.55 0 0 1-.382-.248c-.085-.139-.089-.301-.082-.43.008-.138.035-.308.069-.506.069-.403.074-.699.016-.972-.059-.273-.186-.548-.417-.9a3.9 3.9 0 0 1-.479-1.128c-.142-.679-.389-.992-.748-1.146-.285-.122-.52-.254-.681-.436a.97.97 0 0 1-.236-.673c0-.159.021-.315.111-.468a1.3 1.3 0 0 1 .354-.364c.129-.098.216-.173.274-.233s.069-.09.071-.097l.001-.004a.1.1 0 0 0-.007-.031 1 1 0 0 0-.111-.197c-.112-.164-.2-.313-.238-.509-.036-.182-.023-.383.001-.642.04-.432.01-.58-.077-.748a1.1 1.1 0 0 1-.15-.506c-.008-.179.025-.392.078-.688l.047-.261a.43.43 0 0 0-.15-.404 2.4 2.4 0 0 1-.253-.233 1 1 0 0 1-.093-.119.4.4 0 0 1-.047-.117.32.32 0 0 1 .106-.312l.001-.001h.002c.032-.026.104-.072.166-.11.073-.046.166-.104.263-.162.176-.106.386-.271.457-.35l.011-.014q.003-.002.001-.005a5 5 0 0 0-.162-.238 2 2 0 0 1-.293-.544c-.06-.189-.072-.383-.073-.623l-.004-.114a6.6 6.6 0 0 0-.178-1.093 7 7 0 0 1-.167-.729c-.028-.188-.034-.396.07-.579.109-.19.295-.28.47-.337.176-.056.407-.098.676-.145a.09.09 0 0 0 .06-.136 2 2 0 0 0-.098-.15l-.315-.439a.3.3 0 0 1-.057-.188l.058-1.756c.016-.491.029-.871.052-1.169.022-.295.054-.531.116-.726.136-.43.405-.618.759-.861.197-.136.352-.29.455-.438.104-.151.142-.277.143-.363l-.008-.041a2.2 2.2 0 0 0-.09-.288l-.068-.166a1.7 1.7 0 0 1-.166-.562c-.017-.19.008-.394.051-.664l.025-.14c.065-.336.18-.732.284-.945a.3.3 0 0 0-.051-.338l-.145-.155c-.251-.269-.447-.535-.492-.817-.052-.323.103-.577.32-.781a1.298 1.298 0 0 0 .263-.48 10 10 0 0 1 .411-1.104c.216-.495.236-.67.21-.812-.054-.285.014-.68.142-1.082v-.002c.106-.335.315-1.001.464-1.48l.085-.271c.08-.248.149-.43.232-.569.131-.215.289-.316.479-.421l.068-.041c.134-.09.261-.222.341-.35l.036-.063a4 4 0 0 1 .472-.714c.179-.213.078-.515-.135-.694a2.1 2.1 0 0 1-.425-.463l-.04-.07a17 17 0 0 0-.416-.75l-.279-.475a.3.3 0 0 1-.028-.245l.159-.503c.078-.249.144-.672.144-.919 0-.155.014-.321.035-.465.02-.133.052-.286.106-.392.032-.064.096-.145.152-.214.065-.079.15-.177.247-.286.195-.218.447-.488.71-.757.646-.661 1.076-1.205 1.413-1.783.244-.42.348-.61.388-.73.016-.047.015-.064.015-.07a.4.4 0 0 0-.031-.097 58 58 0 0 1-.326-.844l-.206-.546a.3.3 0 0 1 .013-.244l.238-.473c.151-.3.535-.786.855-1.1.445-.438.467-.543.467-.618 0-.275.057-.542.161-.768.102-.222.261-.429.482-.543.035-.018.142-.097.301-.235.15-.13.323-.294.482-.456.266-.273.39-.414.453-.518a.36.36 0 0 0 .057-.174l.007-.183c.007-.101.024-.207.046-.304.028-.127.071-.265.129-.371l.065-.127a11 11 0 0 0 .253-.558 1.8 1.8 0 0 1 .284-.48 1.4 1.4 0 0 1 .427-.32l.06-.035a2.811 2.811 0 0 0 .585-.543c.189-.242.28-.546.256-.851l-.012-.142a4 4 0 0 1-.011-.735 1.9 1.9 0 0 1 .162-.576c.089-.205.197-.605.232-.869l.022-.131c.063-.326.21-.772.353-1.076.117-.247.175-.397.208-.562.033-.172.043-.375.043-.734 0-.383.002-.642.056-.852.06-.232.178-.393.331-.594.247-.325.368-.51.436-.68.065-.16.09-.328.1-.635.011-.33.052-.785.095-1.019a.7.7 0 0 0 .003-.32c-.025-.118-.083-.273-.204-.542l-.296-.654a.3.3 0 0 1 .003-.255l.354-.753c.298-.634.557-.977 1.171-1.573l.289-.29c.254-.266.408-.466.504-.658.123-.243.167-.497.167-.916 0-.156-.006-.309.005-.429a.85.85 0 0 1 .139-.407c.08-.121.196-.237.341-.367.147-.133.349-.304.614-.532.161-.14.335-.272.486-.374q.114-.076.214-.132a.8.8 0 0 1 .213-.087h.001c.127-.026.399-.074.606-.107l.071-.015c.165-.045.353-.18.939-.773.242-.246.499-.48.732-.67.227-.186.45-.346.621-.428.311-.149.371-.24.401-.333.065-.198.218-.474.353-.638a4 4 0 0 0 .397-.686c.09-.191.177-.352.277-.466a.57.57 0 0 1 .442-.215l.059-.004.032-.01a.5.5 0 0 0 .131-.11c.145-.157.347-.454.714-1.025.283-.44.483-.733.673-.948.198-.226.382-.364.624-.508.211-.126.323-.21.415-.314.096-.108.184-.252.32-.523.192-.381.303-.714.341-.97.041-.272-.01-.383-.035-.412a.8.8 0 0 1-.138-.193.5.5 0 0 1-.034-.312 1.2 1.2 0 0 1 .098-.273q.067-.14.18-.35a4.3 4.3 0 0 1 .747-.985c.142-.141.291-.268.435-.37.14-.097.294-.183.446-.221l.112-.024a.524.524 0 0 1 .457.132c.075.066.144.156.214.256l.269.408v.001a.6.6 0 0 0 .18.198c.062.042.152.08.314.122l.071.017q.01.002.011-.009v-.026c0-.297.062-.605.159-.856.049-.125.11-.246.183-.347.07-.096.17-.2.304-.255h.001l.001-.001.007-.003.021-.01.067-.034q.081-.043.2-.109c.156-.087.349-.198.54-.31l.12-.072c.27-.16.435-.45.435-.763 0-.289.006-.506.051-.68a.94.94 0 0 1 .276-.453c.079-.078.167-.151.25-.207q.062-.043.129-.076a.5.5 0 0 1 .179-.052l.865-.032.195-.008c.177-.01.305-.027.414-.052.139-.033.258-.084.414-.173.215-.124.385-.207.656-.25.247-.039.58-.045 1.12-.047a13 13 0 0 0 .872-.033 5 5 0 0 0 .343-.038.1.1 0 0 0 .038-.02 1 1 0 0 0 .089-.098c.069-.083.143-.189.204-.293.157-.268.479-.648.729-.863.182-.157.339-.29.523-.352.145-.049.291-.048.442-.033l.153.018.158.015c.128.004.173-.02.214-.054a.9.9 0 0 0 .168-.215c.072-.118.153-.278.256-.493.091-.19.265-.431.47-.68.21-.256.469-.54.746-.822.55-.561 1.19-1.133 1.679-1.463.303-.205.823-.63 1.144-.938h.002l.602-.577a.3.3 0 0 1 .15-.078l1.144-.231c.761-.155 1.09-.222 1.26-.287.07-.028.083-.044.087-.048a1 1 0 0 0 .078-.136c.035-.069.093-.148.152-.223q.096-.122.231-.27c.176-.198.397-.428.62-.645.322-.31.552-.52.738-.65.198-.139.37-.204.573-.206.102 0 .22-.04.419-.235.215-.212.579-.381.963-.512a8.5 8.5 0 0 1 1.324-.323c.46-.076.925-.118 1.319-.112.196.003.382.017.545.05.156.03.319.08.445.175.836.618 1.53.995 2.225 1.22.434.141.608.194.714.203.052.005.066.006.214-.074.142-.076.323-.262.484-.525a2.3 2.3 0 0 0 .314-.811c.062-.397.17-.675.441-.886.132-.102.512-.415.844-.695 1.21-1.02 2.309-1.43 3.665-1.328.361.027.502.032.602.012.081-.016.147-.051.346-.189.124-.085.236-.16.339-.214a.8.8 0 0 1 .356-.103.8.8 0 0 1 .363.076c.108.045.227.112.359.187l.022.013c.027.014.061-.002.068-.033.023-.117.063-.236.109-.343.056-.13.134-.27.229-.37l.088-.081a1.7 1.7 0 0 1 .329-.204c.162-.08.351-.153.548-.215.391-.125.842-.215 1.206-.215.209 0 .286-.013.332-.03.034-.014.075-.04.178-.158l.119-.126c.125-.123.273-.228.461-.25.246-.028.467.098.66.226.203.135.385.148.517.104.131-.044.262-.159.335-.38a.95.95 0 0 1 .296-.451c.14-.12.331-.222.579-.34.363-.174.653-.396.818-.605.096-.121.202-.234.298-.32.048-.041.098-.082.149-.114a1 1 0 0 1 .09-.048.4.4 0 0 1 .15-.031M559.629 23.028c23.122 0 43.3 13.508 43.3 28.24 0 14.333-17.049 26.171-39.136 27.993 11.633 5.107 19.24 13.567 19.24 23.141 0 15.596-17.205 28.238-47.111 28.238h-13.323c5.939 4.783 9.477 10.793 9.477 17.322 0 15.596-20.182 28.239-45.077 28.239s-45.077-12.643-45.077-28.239c0-12.769 13.529-23.558 32.097-27.049-6.876-4.957-11.04-11.428-11.04-18.511 0-11.67 11.301-21.687 27.422-25.99-14.571-4.68-24.543-14.182-24.543-25.145 0-15.379 18.872-28.239 44.041-28.239z" stroke-width="1px" fill-opacity="1" stroke-opacity="1"></path><path fill="currentColor" fill-rule="evenodd" d="M270.005 25.636c6.774-3.55 13.654-3.76 17.506.092 5.43 5.43 2.788 16.874-5.899 25.562l-.318.313c3.54-.312 6.689.533 8.886 2.662 6.772-3.544 13.647-3.753 17.497.097 5.43 5.43 2.789 16.875-5.899 25.563q-.419.418-.845.817c4.762-1.185 9.125-.522 11.909 2.26 5.429 5.43 2.788 16.876-5.9 25.563-3.999 4-8.583 6.716-12.894 7.955 1.24 5.933-1.872 14.098-8.454 20.68-5.35 5.351-11.747 8.407-17.14 8.698.85 5.859-2.27 13.629-8.584 19.943-8.688 8.687-20.132 11.329-25.562 5.899a9 9 0 0 1-.299-.314c-6.954 3.902-14.142 4.301-18.156.41-6.714 3.515-13.53 3.75-17.398 0-6.714 3.515-13.529 3.75-17.398.001-6.771 3.544-13.645 3.753-17.496-.097-5.43-5.43-2.789-16.875 5.899-25.563a36 36 0 0 1 2.862-2.569c-6.502 3.142-12.982 3.187-16.678-.509-5.43-5.43-2.789-16.875 5.899-25.562q.488-.487.985-.949c-4.964 1.368-9.546.761-12.43-2.123-5.43-5.43-2.789-16.875 5.899-25.563 3.999-4 8.583-6.717 12.895-7.956-1.243-5.933 1.869-14.1 8.453-20.685 7.988-7.988 18.307-10.864 24.138-7.054-1.779-5.986 1.305-14.658 8.227-21.58 8.638-8.638 20.002-11.298 25.469-5.991 6.72-3.521 13.543-3.757 17.413 0 6.72-3.52 13.543-3.757 17.413 0m-31.34 56.046c-6.563 5.68-14.252 8.094-19.705 6.465 1.097 5.91-2.018 13.932-8.505 20.418a35 35 0 0 1-1.617 1.521c5.637-2.052 10.991-1.677 14.219 1.551.964.964 1.673 2.118 2.14 3.412 6.34-5.136 13.568-7.277 18.778-5.751-1.085-5.907 2.031-13.918 8.509-20.396q.491-.492.995-.957c-4.968 1.37-9.555.766-12.441-2.12-1.142-1.143-1.927-2.55-2.373-4.143" clip-rule="evenodd" stroke-width="1px" fill-opacity="1" stroke-opacity="1"></path><path fill="currentColor" d="M148.817 85.3H85.781v26.88h51.173v61.768H70.046v-27.214H31.924V50.09h38.122V23.531h78.771zM386.341 53.42h8.031v30.43h-.077v.002h.077v59.664h9.527v-29.889h9.339V53.308h11.655V23.533h23.309v30.429h-11.656v60.451h-9.338v29.643h-7.521v29.889h-40.592v-29.889h-8.031v-30.431h-.077v-30.43h.076V53.962h-9.524V83.85h-9.338v60.319h-11.656v29.775h-23.308v-30.429h11.655V83.064h9.338V53.421h7.518V23.53h40.593zM688.557 93.521l-33.582 8.998v71.422h-59.396V98.147h32.726l-16.738-62.464L668.94 20.31z" stroke-width="1px" fill-opacity="1" stroke-opacity="1"></path></svg>